<svg id="Layer_1" data-name="Layer 1" xmlns="http://www.w3.org/2000/svg" viewBox="0 0 891.33 633.99"><defs><style>.cls-1{font-size:141.75px;fill:none;stroke:#fff;stroke-miterlimit:10;font-family:Shink, Shink;}.cls-2{fill:#fff;}</style></defs><title>letstalk</title><text class="cls-1" transform="translate(168.4 484.65)">let’s talk</text><path class="cls-2" d="M218,76.61c49.66.71,101.76,2,149.59-13.48,10.75-3.49,21.41-8,30.75-14.42,7.7-5.31,18.84-13.48,18.13-24.07C415.74,13.86,403.62,10,395,7.3c-9.79-3.11-20.35-5.37-30.62-3.69-24.27,4-25.05,31.18-26.35,50.74-1.62,24.54.31,49.13,4,73.4,7.58,50.12,23,98.59,34.05,148,5,22.28,8.75,44.71,11.55,67.36,1.2,9.7,2.54,19.49,2.77,29.27.23,9.45-2.31,18.61-3.37,28-.86,7.66,11.14,7.6,12,0s2.94-15,3.33-22.68c.38-7.45-.51-15-1.31-22.4-1.74-16.09-3.81-32.2-6.51-48.16-7.74-45.73-21.39-90.16-31.75-135.31-10.11-44-17.34-89.78-11-134.94,1.23-8.64,2.75-18.18,12.39-20.93,8.71-2.48,18.52.14,26.9,2.75,3.77,1.18,9.28,2.29,12.19,5.14,3.51,3.44-3.48,8.58-6,10.77C389.76,41,380.63,45.6,371.46,49.08,323.22,67.38,268.71,65.33,218,64.61c-7.72-.11-7.73,11.89,0,12Z" transform="translate(-212.21 -3.04)"/></svg>